<?xml version="1.0" encoding="utf-8"?>
<!-- Generator: Adobe Illustrator 19.2.1, SVG Export Plug-In . SVG Version: 6.00 Build 0)  -->
<svg version="1.1" id="Lag_1" xmlns="http://www.w3.org/2000/svg" xmlns:xlink="http://www.w3.org/1999/xlink" x="0px" y="0px"
	 viewBox="0 0 448 512" style="enable-background:new 0 0 448 512;" xml:space="preserve">
<style type="text/css">
	.st0{fill:#0089E0;}
	.st1{fill:#FFFFFF;}
	.st2{font-family:'WorkSans-Regular';}
	.st3{font-size:90.75px;}
</style>
<path d="M448,360V24c0-13.3-10.7-24-24-24H96C43,0,0,43,0,96v320c0,53,43,96,96,96h328c13.3,0,24-10.7,24-24v-16
	c0-7.5-3.5-14.3-8.9-18.7c-4.2-15.4-4.2-59.3,0-74.7C444.5,374.3,448,367.5,448,360L448,360z M149.8,109.1c24-20,59.7-16.4,81.6,5.8
	l8.6,8.7l8.6-8.7c22-22.2,57.7-25.8,81.6-5.8c27.5,23,28.9,64.2,4.3,89.1l-84.7,85.6c-5.5,5.5-14.3,5.5-19.8,0l-84.7-85.6
	C120.8,173.3,122.3,132.1,149.8,109.1L149.8,109.1z M381.4,448H96c-17.7,0-32-14.3-32-32c0-17.6,14.4-32,32-32h285.4
	C379.5,401.1,379.5,430.9,381.4,448z"/>
<g>
	<path class="st0" d="M428.9,146.7H241.7c-10.6,0-19.1-8.6-19.1-19.1V52.1c0-10.6,8.6-19.1,19.1-19.1h187.2
		c10.6,0,19.1,8.6,19.1,19.1v75.4C448,138.1,439.4,146.7,428.9,146.7z"/>
	<text transform="matrix(1 0 0 1 243.7359 119.4169)" class="st1 st2 st3">PRO</text>
</g>
</svg>
