<?xml version="1.0" encoding="utf-8"?>
<!-- Generator: Adobe Illustrator 19.2.1, SVG Export Plug-In . SVG Version: 6.00 Build 0)  -->
<svg version="1.1" id="Lag_1" xmlns="http://www.w3.org/2000/svg" xmlns:xlink="http://www.w3.org/1999/xlink" x="0px" y="0px"
	 viewBox="0 0 448 512" style="enable-background:new 0 0 448 512;" xml:space="preserve">
<style type="text/css">
	.st0{fill:#0089E0;}
	.st1{fill:#FFFFFF;}
	.st2{font-family:'WorkSans-Regular';}
	.st3{font-size:90.75px;}
</style>
<path d="M447.6,158.8L391.3,53.9C386.9,40.8,374.7,32,360.9,32H240v128h206.7C447.1,159.5,447.2,159.3,447.6,158.8z M0,192v256
	c0,17.7,14.3,32,32,32h384c17.7,0,32-14.3,32-32V192H0z M305.1,341.2l-72.6,71.4c-4.7,4.6-12.3,4.6-17,0l-72.6-71.4
	c-21.1-20.7-19.8-55.1,3.7-74.2c20.5-16.7,51.1-13.7,70,4.8l7.4,7.3l7.4-7.3c18.8-18.5,49.4-21.5,70-4.8
	C324.9,286.1,326.1,320.4,305.1,341.2L305.1,341.2z M208,160V32H87.1c-13.8,0-26,8.8-30.4,21.9L0.4,158.8c0.4,0.5,0.5,0.7,0.9,1.2
	H208z"/>
<g>
	<path class="st0" d="M428.9,146.7H241.7c-10.6,0-19.1-8.6-19.1-19.1V52.1c0-10.6,8.6-19.1,19.1-19.1h187.2
		c10.6,0,19.1,8.6,19.1,19.1v75.4C448,138.1,439.4,146.7,428.9,146.7z"/>
	<text transform="matrix(1 0 0 1 243.7359 119.4169)" class="st1 st2 st3">PRO</text>
</g>
</svg>
