<?xml version="1.0" encoding="utf-8"?>
<!-- Generator: Adobe Illustrator 19.2.1, SVG Export Plug-In . SVG Version: 6.00 Build 0)  -->
<svg version="1.1" id="Lag_1" xmlns="http://www.w3.org/2000/svg" xmlns:xlink="http://www.w3.org/1999/xlink" x="0px" y="0px"
	 viewBox="0 0 512 512" style="enable-background:new 0 0 512 512;" xml:space="preserve">
<style type="text/css">
	.st0{fill:#0089E0;}
	.st1{fill:#FFFFFF;}
	.st2{font-family:'WorkSans-Regular';}
	.st3{font-size:90.75px;}
</style>
<path d="M509.5,184.6L458.9,32.8C452.4,13.2,434.1,0,413.4,0H98.6c-20.7,0-39,13.2-45.5,32.8L2.5,184.6c-1.6,4.9-2.5,10-2.5,15.2
	V464c0,26.5,21.5,48,48,48h416c26.5,0,48-21.5,48-48V199.8C512,194.6,511.2,189.5,509.5,184.6z M461.4,192H280V48h133.4L461.4,192z
	 M98.6,48H232v144H50.6L98.6,48z M48,464V240h416v224H48z"/>
<g>
	<path class="st0" d="M491.9,146.7H304.7c-10.6,0-19.1-8.6-19.1-19.1V52.1c0-10.6,8.6-19.1,19.1-19.1h187.2
		c10.6,0,19.1,8.6,19.1,19.1v75.4C511,138.1,502.4,146.7,491.9,146.7z"/>
	<text transform="matrix(1 0 0 1 306.7358 119.4169)" class="st1 st2 st3">PRO</text>
</g>
</svg>
