<?xml version="1.0" encoding="utf-8"?>
<!-- Generator: Adobe Illustrator 19.2.1, SVG Export Plug-In . SVG Version: 6.00 Build 0)  -->
<svg version="1.1" id="Lag_1" xmlns="http://www.w3.org/2000/svg" xmlns:xlink="http://www.w3.org/1999/xlink" x="0px" y="0px"
	 viewBox="0 0 512 512" style="enable-background:new 0 0 512 512;" xml:space="preserve">
<style type="text/css">
	.st0{fill:#0089E0;}
	.st1{fill:#FFFFFF;}
	.st2{font-family:'WorkSans-Regular';}
	.st3{font-size:90.75px;}
</style>
<path d="M509.5,184.6L458.9,32.8C452.4,13.2,434.1,0,413.4,0H98.6c-20.7,0-39,13.2-45.5,32.8L2.5,184.6c-1.6,4.9-2.5,10-2.5,15.2
	V464c0,26.5,21.5,48,48,48h416c26.5,0,48-21.5,48-48V199.8C512,194.6,511.2,189.5,509.5,184.6z M32,199.8c0-1.7,0.3-3.4,0.8-5.1
	L83.4,42.9C85.6,36.4,91.7,32,98.6,32H240v168H32V199.8z M480,464c0,8.8-7.2,16-16,16H48c-8.8,0-16-7.2-16-16V232h448V464z M480,200
	H272V32h141.4c6.9,0,13,4.4,15.2,10.9l50.6,151.8c0.5,1.6,0.8,3.3,0.8,5.1V200L480,200z"/>
<g>
	<path class="st0" d="M492.9,146.7H305.7c-10.6,0-19.1-8.6-19.1-19.1V52.1c0-10.6,8.6-19.1,19.1-19.1h187.2
		c10.6,0,19.1,8.6,19.1,19.1v75.4C512,138.1,503.4,146.7,492.9,146.7z"/>
	<text transform="matrix(1 0 0 1 307.7358 119.4169)" class="st1 st2 st3">PRO</text>
</g>
</svg>
