<?xml version="1.0" encoding="utf-8"?>
<!-- Generator: Adobe Illustrator 24.0.2, SVG Export Plug-In . SVG Version: 6.00 Build 0)  -->
<svg version="1.1" id="Layer_1" xmlns="http://www.w3.org/2000/svg" xmlns:xlink="http://www.w3.org/1999/xlink" x="0px" y="0px"
	 viewBox="0 0 384 512" style="enable-background:new 0 0 384 512;" xml:space="preserve">
<style type="text/css">
	.st0{fill:#0089E0;}
	.st1{fill:#FFFFFF;}
	.st2{font-family:'ArialMT';}
	.st3{font-size:90.75px;}
</style>
<path d="M336,64h-88.6c0.4-2.6,0.6-5.3,0.6-8c0-30.9-25.1-56-56-56s-56,25.1-56,56c0,2.7,0.2,5.4,0.6,8H48C21.5,64,0,85.5,0,112v352
	c0,26.5,21.5,48,48,48h288c26.5,0,48-21.5,48-48V112C384,85.5,362.5,64,336,64z M352,464c0,8.8-7.2,16-16,16H48c-8.8,0-16-7.2-16-16
	V112c0-8.8,7.2-16,16-16h48v20c0,6.6,5.4,12,12,12h168c6.6,0,12-5.4,12-12V96h48c8.8,0,16,7.2,16,16V464z M192,32
	c13.3,0,24,10.7,24,24s-10.7,24-24,24s-24-10.7-24-24S178.7,32,192,32"/>
<g>
	<path class="st0" d="M363.9,146.7H176.7c-10.6,0-19.1-8.6-19.1-19.1V52.1c0-10.6,8.6-19.1,19.1-19.1h187.2
		c10.6,0,19.1,8.6,19.1,19.1v75.4C383,138.1,374.4,146.7,363.9,146.7z"/>
	<text transform="matrix(1 0 0 1 178.7358 119.4169)" class="st1 st2 st3">PRO</text>
</g>
</svg>
