<?xml version="1.0" encoding="utf-8"?>
<!-- Generator: Adobe Illustrator 19.2.1, SVG Export Plug-In . SVG Version: 6.00 Build 0)  -->
<svg version="1.1" id="Lag_1" xmlns="http://www.w3.org/2000/svg" xmlns:xlink="http://www.w3.org/1999/xlink" x="0px" y="0px"
	 viewBox="0 0 576 512" style="enable-background:new 0 0 576 512;" xml:space="preserve">
<style type="text/css">
	.st0{fill:#0089E0;}
	.st1{fill:#FFFFFF;}
	.st2{font-family:'WorkSans-Regular';}
	.st3{font-size:90.75px;}
</style>
<path d="M575.2,309.9l-5.1-15.2c-2.8-8.4-11.9-12.9-20.2-10.1L531,291L459.1,75.3C455.7,65.2,448.6,57,439,52.2
	c-9.5-4.7-20.4-5.5-30.5-2.2l-221.9,74L158,38.3C150.4,15.4,129,0,105,0H16C7.2,0,0,7.2,0,16v16c0,8.8,7.2,16,16,16h88.9
	c3.4,0,6.5,2.2,7.6,5.5l93.6,280.8c-27.6,16.9-46.2,47-46.2,81.7c0,53,43,96,96,96s96-43,96-96c0-4.9-0.7-9.5-1.4-14.2L565,330.2
	C573.4,327.4,578,318.3,575.2,309.9L575.2,309.9z M256,464c-26.5,0-48-21.5-48-48s21.5-48,48-48s48,21.5,48,48S282.5,464,256,464z
	 M331.6,357.5C314,334.8,286.9,320,256,320c-1.3,0-2.6,0.3-3.9,0.4l-50.3-150.8l86.5-28.8l19.9,59.7c2.8,8.4,11.9,12.9,20.2,10.1
	l15.2-5.1c8.4-2.8,12.9-11.9,10.1-20.2l-19.9-59.7l82.3-27.4l69.4,208.1L331.6,357.5L331.6,357.5z"/>
<g>
	<path class="st0" d="M556.9,146.7H369.7c-10.6,0-19.1-8.6-19.1-19.1V52.1c0-10.6,8.6-19.1,19.1-19.1h187.2
		c10.6,0,19.1,8.6,19.1,19.1v75.4C576,138.1,567.4,146.7,556.9,146.7z"/>
	<text transform="matrix(1 0 0 1 371.7358 119.4169)" class="st1 st2 st3">PRO</text>
</g>
</svg>
