<?xml version="1.0" encoding="utf-8"?>
<!-- Generator: Adobe Illustrator 19.2.1, SVG Export Plug-In . SVG Version: 6.00 Build 0)  -->
<svg version="1.1" id="Lag_1" xmlns="http://www.w3.org/2000/svg" xmlns:xlink="http://www.w3.org/1999/xlink" x="0px" y="0px"
	 viewBox="0 0 576 512" style="enable-background:new 0 0 576 512;" xml:space="preserve">
<style type="text/css">
	.st0{fill:#0089E0;}
	.st1{fill:#FFFFFF;}
	.st2{font-family:'WorkSans-Regular';}
	.st3{font-size:90.75px;}
</style>
<path d="M575.6,309.8l-5.1-15.2c-1.4-4.2-5.9-6.5-10.1-5.1L526,301.1L451.5,77.9c-2.7-8.1-8.4-14.7-16-18.5
	c-7.7-3.8-16.3-4.4-24.4-1.7L176.3,136l-18-50.7C146.9,53.3,116.7,32,82.8,32H8c-4.4,0-8,3.6-8,8v16c0,4.4,3.6,8,8,8h74.8
	c20.3,0,38.4,12.8,45.2,31.9l96.7,271.9c-23.3,17.2-37.2,46.5-31.4,78.9c5.6,31.3,30.4,57,61.5,63.5c51.7,10.7,97.2-28.4,97.2-78.2
	c0-13.1-3.4-25.2-9-36.1l227.5-76C574.7,318.5,577,314,575.6,309.8z M187,166.1l106.4-35.5l25,74.9c1.4,4.2,5.9,6.5,10.1,5.1
	l15.2-5.1c4.2-1.4,6.5-5.9,5.1-10.1l-25-74.9L421.2,88l74.5,223.3l-174.4,58.1C307.6,358.7,290.7,352,272,352
	c-6.3,0-12.3,0.9-18.1,2.3L187,166.1z M272,480c-26.5,0-48-21.5-48-48s21.5-48,48-48s48,21.5,48,48S298.5,480,272,480z"/>
<g>
	<path class="st0" d="M556.9,146.7H369.7c-10.6,0-19.1-8.6-19.1-19.1V52.1c0-10.6,8.6-19.1,19.1-19.1h187.2
		c10.6,0,19.1,8.6,19.1,19.1v75.4C576,138.1,567.4,146.7,556.9,146.7z"/>
	<text transform="matrix(1 0 0 1 371.7358 119.4169)" class="st1 st2 st3">PRO</text>
</g>
</svg>
