<?xml version="1.0" encoding="utf-8"?>
<!-- Generator: Adobe Illustrator 19.2.1, SVG Export Plug-In . SVG Version: 6.00 Build 0)  -->
<svg version="1.1" id="Lag_1" xmlns="http://www.w3.org/2000/svg" xmlns:xlink="http://www.w3.org/1999/xlink" x="0px" y="0px"
	 viewBox="0 0 640 512" style="enable-background:new 0 0 640 512;" xml:space="preserve">
<style type="text/css">
	.st0{fill:#0089E0;}
	.st1{fill:#FFFFFF;}
	.st2{font-family:'WorkSans-Regular';}
	.st3{font-size:90.75px;}
</style>
<path d="M208,352h384c8.8,0,16-7.2,16-16V208c0-8.8-7.2-16-16-16h-48V80c0-8.8-7.2-16-16-16H208c-8.8,0-16,7.2-16,16v256
	C192,344.8,199.2,352,208,352z M416,112h80v80h-80V112z M416,240h144v64H416V240z M240,112h128v192H240V112z M624,400H144V16
	c0-8.8-7.2-16-16-16H16C7.2,0,0,7.2,0,16v16c0,8.8,7.2,16,16,16h80v384c0,8.8,7.2,16,16,16h50.9c-1.8,5-2.9,10.4-2.9,16
	c0,26.5,21.5,48,48,48s48-21.5,48-48c0-5.6-1.2-11-2.9-16H451c-1.8,5-2.9,10.4-2.9,16c0,26.5,21.5,48,48,48c26.5,0,48-21.5,48-48
	c0-5.6-1.2-11-2.9-16H624c8.8,0,16-7.2,16-16v-16C640,407.2,632.8,400,624,400z"/>
<g>
	<path class="st0" d="M620.9,146.7H433.7c-10.6,0-19.1-8.6-19.1-19.1V52.1c0-10.6,8.6-19.1,19.1-19.1h187.2
		c10.6,0,19.1,8.6,19.1,19.1v75.4C640,138.1,631.4,146.7,620.9,146.7z"/>
	<text transform="matrix(1 0 0 1 435.7358 119.4169)" class="st1 st2 st3">PRO</text>
</g>
</svg>
