<?xml version="1.0" encoding="utf-8"?>
<!-- Generator: Adobe Illustrator 19.2.1, SVG Export Plug-In . SVG Version: 6.00 Build 0)  -->
<svg version="1.1" id="Lag_1" xmlns="http://www.w3.org/2000/svg" xmlns:xlink="http://www.w3.org/1999/xlink" x="0px" y="0px"
	 viewBox="0 0 640 512" style="enable-background:new 0 0 640 512;" xml:space="preserve">
<style type="text/css">
	.st0{fill:#0089E0;}
	.st1{fill:#FFFFFF;}
	.st2{font-family:'WorkSans-Regular';}
	.st3{font-size:90.75px;}
</style>
<path d="M624,384H128V16c0-8.8-7.2-16-16-16H16C7.2,0,0,7.2,0,16v32c0,8.8,7.2,16,16,16h48v368c0,8.8,7.2,16,16,16h82.9
	c-1.8,5-2.9,10.4-2.9,16c0,26.5,21.5,48,48,48s48-21.5,48-48c0-5.6-1.2-11-2.9-16H451c-1.8,5-2.9,10.4-2.9,16c0,26.5,21.5,48,48,48
	c26.5,0,48-21.5,48-48c0-5.6-1.2-11-2.9-16H624c8.8,0,16-7.2,16-16v-32C640,391.2,632.8,384,624,384z M208,320h160
	c8.8,0,16-7.2,16-16V48c0-8.8-7.2-16-16-16H208c-8.8,0-16,7.2-16,16v256C192,312.8,199.2,320,208,320z M432,160h96
	c8.8,0,16-7.2,16-16V48c0-8.8-7.2-16-16-16h-96c-8.8,0-16,7.2-16,16v96C416,152.8,423.2,160,432,160z M432,320h160
	c8.8,0,16-7.2,16-16v-96c0-8.8-7.2-16-16-16H432c-8.8,0-16,7.2-16,16v96C416,312.8,423.2,320,432,320z"/>
<g>
	<path class="st0" d="M620.9,146.7H433.7c-10.6,0-19.1-8.6-19.1-19.1V52.1c0-10.6,8.6-19.1,19.1-19.1h187.2
		c10.6,0,19.1,8.6,19.1,19.1v75.4C640,138.1,631.4,146.7,620.9,146.7z"/>
	<text transform="matrix(1 0 0 1 435.7358 119.4169)" class="st1 st2 st3">PRO</text>
</g>
</svg>
