<?xml version="1.0" encoding="utf-8"?>
<!-- Generator: Adobe Illustrator 19.2.1, SVG Export Plug-In . SVG Version: 6.00 Build 0)  -->
<svg version="1.1" id="Lag_1" xmlns="http://www.w3.org/2000/svg" xmlns:xlink="http://www.w3.org/1999/xlink" x="0px" y="0px"
	 viewBox="0 0 512 512" style="enable-background:new 0 0 512 512;" xml:space="preserve">
<style type="text/css">
	.st0{fill:#0089E0;}
	.st1{fill:#FFFFFF;}
	.st2{font-family:'WorkSans-Regular';}
	.st3{font-size:90.75px;}
</style>
<path d="M344.3,74.7C287.7,74.7,242.4,40,172.5,40c-28.5,0-53.7,5.3-77,14.4C99.6,24.7,75.8-1.1,46.1,0C21.5,1,1.4,20.8,0.1,45.3
	c-1.2,22.1,12.5,41.1,31.9,48V500c0,6.6,5.4,12,12,12h8c6.6,0,12-5.4,12-12V378.4c31.4-14.5,72.1-29.1,135.7-29.1
	c56.6,0,101.9,34.7,171.8,34.7c51.3,0,91.9-17.2,130-43c6.6-4.5,10.5-11.9,10.5-19.9V59.5c0-17.5-18.2-29.2-34.1-21.8
	C441.1,54.8,391.6,74.7,344.3,74.7z M48,28c11,0,20,9,20,20s-9,20-20,20s-20-9-20-20S37,28,48,28z M480,317.3
	C456.9,334,415.5,352,371.5,352c-63.6,0-108.2-34.7-171.8-34.7c-46,0-102.3,10.2-135.7,26V106.7C87.1,90,128.5,72,172.5,72
	c63.6,0,108.2,34.7,171.8,34.7c45.9,0,102.2-18.8,135.7-34.7V317.3z"/>
<g>
	<path class="st0" d="M492.9,146.7H305.7c-10.6,0-19.1-8.6-19.1-19.1V52.1c0-10.6,8.6-19.1,19.1-19.1h187.2
		c10.6,0,19.1,8.6,19.1,19.1v75.4C512,138.1,503.4,146.7,492.9,146.7z"/>
	<text transform="matrix(1 0 0 1 307.7358 119.4169)" class="st1 st2 st3">PRO</text>
</g>
</svg>
