<?xml version="1.0" encoding="utf-8"?>
<!-- Generator: Adobe Illustrator 19.2.1, SVG Export Plug-In . SVG Version: 6.00 Build 0)  -->
<svg version="1.1" id="Lag_1" xmlns="http://www.w3.org/2000/svg" xmlns:xlink="http://www.w3.org/1999/xlink" x="0px" y="0px"
	 viewBox="0 0 496 512" style="enable-background:new 0 0 496 512;" xml:space="preserve">
<style type="text/css">
	.st0{fill:#0089E0;}
	.st1{fill:#FFFFFF;}
	.st2{font-family:'WorkSans-Regular';}
	.st3{font-size:90.75px;}
</style>
<path d="M248,8C111,8,0,119,0,256s111,248,248,248s248-111,248-248S385,8,248,8z M427.3,168h-67.2c-6.7-36.5-17.5-68.8-31.2-94.7
	C371.8,92.3,406.6,126,427.3,168L427.3,168z M248,56c18.6,0,48.6,41.2,63.2,112H184.8C199.4,97.2,229.4,56,248,56z M48,256
	c0-13.7,1.4-27.1,4-40h77.7c-1,13.1-1.7,26.3-1.7,40c0,13.7,0.7,26.9,1.7,40H52C49.4,283.1,48,269.7,48,256z M68.7,344h67.2
	c6.7,36.5,17.5,68.8,31.2,94.7C124.2,419.7,89.4,386,68.7,344z M135.9,168H68.7c20.7-42,55.5-75.7,98.4-94.7
	C153.4,99.2,142.6,131.5,135.9,168L135.9,168z M248,456c-18.6,0-48.6-41.2-63.2-112h126.5C296.6,414.8,266.6,456,248,456L248,456z
	 M318.1,296H177.9c-1.1-12.8-1.9-26-1.9-40s0.8-27.2,1.9-40h140.3c1.1,12.8,1.9,26,1.9,40S319.2,283.2,318.1,296z M328.9,438.7
	c13.7-25.9,24.4-58.2,31.2-94.7h67.2C406.6,386,371.8,419.7,328.9,438.7z M366.3,296c1-13.1,1.7-26.3,1.7-40s-0.7-26.9-1.7-40H444
	c2.6,12.9,4,26.3,4,40c0,13.7-1.4,27.1-4,40H366.3z"/>
<g>
	<path class="st0" d="M476.9,146.7H289.7c-10.6,0-19.1-8.6-19.1-19.1V52.1c0-10.6,8.6-19.1,19.1-19.1h187.2
		c10.6,0,19.1,8.6,19.1,19.1v75.4C496,138.1,487.4,146.7,476.9,146.7z"/>
	<text transform="matrix(1 0 0 1 291.7358 119.4169)" class="st1 st2 st3">PRO</text>
</g>
</svg>
