<?xml version="1.0" encoding="utf-8"?>
<!-- Generator: Adobe Illustrator 19.2.1, SVG Export Plug-In . SVG Version: 6.00 Build 0)  -->
<svg version="1.1" id="Lag_1" xmlns="http://www.w3.org/2000/svg" xmlns:xlink="http://www.w3.org/1999/xlink" x="0px" y="0px"
	 viewBox="0 0 496 512" style="enable-background:new 0 0 496 512;" xml:space="preserve">
<style type="text/css">
	.st0{fill:#0089E0;}
	.st1{fill:#FFFFFF;}
	.st2{font-family:'WorkSans-Regular';}
	.st3{font-size:90.75px;}
</style>
<path d="M248,8C111,8,0,119,0,256s111,248,248,248s248-111,248-248S385,8,248,8z M371.5,280.3L260.9,394.5c-7.1,7.4-18.7,7.4-25.9,0
	L124.5,280.3c-32.1-33.2-30.2-88.2,5.7-118.8c31.3-26.7,77.9-21.9,106.6,7.7l11.3,11.6l11.3-11.6c28.7-29.6,75.3-34.4,106.6-7.7
	C401.8,192.1,403.7,247.1,371.5,280.3z"/>
<g>
	<path class="st0" d="M476.9,146.7H289.7c-10.6,0-19.1-8.6-19.1-19.1V52.1c0-10.6,8.6-19.1,19.1-19.1h187.2
		c10.6,0,19.1,8.6,19.1,19.1v75.4C496,138.1,487.4,146.7,476.9,146.7z"/>
	<text transform="matrix(1 0 0 1 291.7359 119.4169)" class="st1 st2 st3">PRO</text>
</g>
</svg>
