<?xml version="1.0" encoding="utf-8"?>
<!-- Generator: Adobe Illustrator 19.2.1, SVG Export Plug-In . SVG Version: 6.00 Build 0)  -->
<svg version="1.1" id="Lag_1" xmlns="http://www.w3.org/2000/svg" xmlns:xlink="http://www.w3.org/1999/xlink" x="0px" y="0px"
	 viewBox="0 0 448 512" style="enable-background:new 0 0 448 512;" xml:space="preserve">
<style type="text/css">
	.st0{fill:#0089E0;}
	.st1{fill:#FFFFFF;}
	.st2{font-family:'WorkSans-Regular';}
	.st3{font-size:90.75px;}
</style>
<path d="M352,128C352,57.4,294.6,0,224,0C153.4,0,96,57.4,96,128H0v304c0,44.2,35.8,80,80,80h288c44.2,0,80-35.8,80-80V128H352z
	 M224,48c44.1,0,80,35.9,80,80H144C144,83.9,179.9,48,224,48z M400,432c0,17.6-14.4,32-32,32H80c-17.6,0-32-14.4-32-32V176h48v40
	c0,13.3,10.7,24,24,24s24-10.7,24-24v-40h160v40c0,13.3,10.7,24,24,24s24-10.7,24-24v-40h48V432z"/>
<g>
	<path class="st0" d="M428.9,146.7H241.7c-10.6,0-19.1-8.6-19.1-19.1V52.1c0-10.6,8.6-19.1,19.1-19.1h187.2
		c10.6,0,19.1,8.6,19.1,19.1v75.4C448,138.1,439.4,146.7,428.9,146.7z"/>
	<text transform="matrix(1 0 0 1 243.7359 119.4169)" class="st1 st2 st3">PRO</text>
</g>
</svg>
