<?xml version="1.0" encoding="utf-8"?>
<!-- Generator: Adobe Illustrator 19.2.1, SVG Export Plug-In . SVG Version: 6.00 Build 0)  -->
<svg version="1.1" id="Lag_1" xmlns="http://www.w3.org/2000/svg" xmlns:xlink="http://www.w3.org/1999/xlink" x="0px" y="0px"
	 viewBox="0 0 576 512" style="enable-background:new 0 0 576 512;" xml:space="preserve">
<style type="text/css">
	.st0{fill:#0089E0;}
	.st1{fill:#FFFFFF;}
	.st2{font-family:'WorkSans-Regular';}
	.st3{font-size:90.75px;}
</style>
<path d="M552,64H144.3l-8.7-44.6C133.4,8.1,123.5,0,112,0H12C5.4,0,0,5.4,0,12v24c0,6.6,5.4,12,12,12h80.2l69.6,355.7
	c-11,11.5-17.8,27.1-17.8,44.3c0,35.3,28.7,64,64,64s64-28.7,64-64c0-11.2-2.9-22.3-8.6-32h145.2c-5.6,9.7-8.6,20.8-8.6,32
	c0,35.3,28.7,64,64,64s64-28.7,64-64c0-18.1-7.6-34.5-19.7-46.1l1-4.8c3.3-15-8.1-29.1-23.5-29.1H203.8l-9.4-48h312.4
	c11.3,0,21.1-7.9,23.5-18.9l45.2-208C578.7,78.1,567.3,64,552,64z M208,472c-13.2,0-24-10.8-24-24s10.8-24,24-24s24,10.8,24,24
	S221.2,472,208,472z M464,472c-13.2,0-24-10.8-24-24s10.8-24,24-24s24,10.8,24,24S477.2,472,464,472z M487.4,272H185l-31.3-160
	h368.5L487.4,272L487.4,272z"/>
<g>
	<path class="st0" d="M555.9,146.7H368.7c-10.6,0-19.1-8.6-19.1-19.1V52.1c0-10.6,8.6-19.1,19.1-19.1h187.2
		c10.6,0,19.1,8.6,19.1,19.1v75.4C575,138.1,566.4,146.7,555.9,146.7z"/>
	<text transform="matrix(1 0 0 1 370.7358 119.4169)" class="st1 st2 st3">PRO</text>
</g>
</svg>
