<?xml version="1.0" encoding="utf-8"?>
<!-- Generator: Adobe Illustrator 19.2.1, SVG Export Plug-In . SVG Version: 6.00 Build 0)  -->
<svg version="1.1" id="Lag_1" xmlns="http://www.w3.org/2000/svg" xmlns:xlink="http://www.w3.org/1999/xlink" x="0px" y="0px"
	 viewBox="0 0 576 512" style="enable-background:new 0 0 576 512;" xml:space="preserve">
<style type="text/css">
	.st0{fill:#0089E0;}
	.st1{fill:#FFFFFF;}
	.st2{font-family:'WorkSans-Regular';}
	.st3{font-size:90.75px;}
</style>
<path d="M564,192h-76.9L347.9,37.3c-5.9-6.6-16-7.1-22.6-1.2s-7.1,16-1.2,22.6l120,133.3H131.9l120-133.3c5.9-6.6,5.4-16.7-1.2-22.6
	c-6.6-5.9-16.7-5.4-22.6,1.2L88.9,192H12c-6.6,0-12,5.4-12,12v8c0,6.6,5.4,12,12,12h16.4l29.8,214.6c3.3,23.7,23.6,41.4,47.5,41.4
	h364.4c24,0,44.2-17.7,47.5-41.4L547.6,224H564c6.6,0,12-5.4,12-12v-8C576,197.4,570.6,192,564,192z M486.1,434.2
	c-1.1,7.9-7.9,13.8-15.8,13.8H105.8c-7.9,0-14.8-5.9-15.8-13.8L60.8,224h454.5L486.1,434.2z M304,280v112c0,8.8-7.2,16-16,16
	c-8.8,0-16-7.2-16-16V280c0-8.8,7.2-16,16-16C296.8,264,304,271.2,304,280z M416,280v112c0,8.8-7.2,16-16,16s-16-7.2-16-16V280
	c0-8.8,7.2-16,16-16S416,271.2,416,280z M192,280v112c0,8.8-7.2,16-16,16s-16-7.2-16-16V280c0-8.8,7.2-16,16-16S192,271.2,192,280z"
	/>
<g>
	<path class="st0" d="M556.9,146.7H369.7c-10.6,0-19.1-8.6-19.1-19.1V52.1c0-10.6,8.6-19.1,19.1-19.1h187.2
		c10.6,0,19.1,8.6,19.1,19.1v75.4C576,138.1,567.4,146.7,556.9,146.7z"/>
	<text transform="matrix(1 0 0 1 371.7358 119.4169)" class="st1 st2 st3">PRO</text>
</g>
</svg>
