<?xml version="1.0" encoding="utf-8"?>
<!-- Generator: Adobe Illustrator 19.2.1, SVG Export Plug-In . SVG Version: 6.00 Build 0)  -->
<svg version="1.1" id="Lag_1" xmlns="http://www.w3.org/2000/svg" xmlns:xlink="http://www.w3.org/1999/xlink" x="0px" y="0px"
	 viewBox="0 0 576 512" style="enable-background:new 0 0 576 512;" xml:space="preserve">
<style type="text/css">
	.st0{fill:#0089E0;}
	.st1{fill:#FFFFFF;}
	.st2{font-family:'WorkSans-Regular';}
	.st3{font-size:90.75px;}
</style>
<path d="M564,192h-72.9L362.3,40.5c-8.6-10.1-23.7-11.3-33.8-2.7c-10.1,8.6-11.3,23.7-2.7,33.8L428.1,192H147.9L250.3,71.5
	c8.6-10.1,7.4-25.2-2.7-33.8s-25.2-7.4-33.8,2.7L84.9,192H12c-6.6,0-12,5.4-12,12v24c0,6.6,5.4,12,12,12h18.7l27.6,198.6
	c3.3,23.7,23.6,41.4,47.5,41.4h364.4c24,0,44.2-17.7,47.5-41.4L545.3,240H564c6.6,0,12-5.4,12-12v-24C576,197.4,570.6,192,564,192z
	 M470.2,432H105.8L79.1,240h417.7L470.2,432z M312,296v80c0,13.3-10.7,24-24,24s-24-10.7-24-24v-80c0-13.3,10.7-24,24-24
	S312,282.7,312,296z M424,296v80c0,13.3-10.7,24-24,24s-24-10.7-24-24v-80c0-13.3,10.7-24,24-24S424,282.7,424,296z M200,296v80
	c0,13.3-10.7,24-24,24s-24-10.7-24-24v-80c0-13.3,10.7-24,24-24S200,282.7,200,296z"/>
<g>
	<path class="st0" d="M556.9,146.7H369.7c-10.6,0-19.1-8.6-19.1-19.1V52.1c0-10.6,8.6-19.1,19.1-19.1h187.2
		c10.6,0,19.1,8.6,19.1,19.1v75.4C576,138.1,567.4,146.7,556.9,146.7z"/>
	<text transform="matrix(1 0 0 1 371.7358 119.4169)" class="st1 st2 st3">PRO</text>
</g>
</svg>
