<?xml version="1.0" encoding="utf-8"?>
<!-- Generator: Adobe Illustrator 19.2.1, SVG Export Plug-In . SVG Version: 6.00 Build 0)  -->
<svg version="1.1" id="Lag_1" xmlns="http://www.w3.org/2000/svg" xmlns:xlink="http://www.w3.org/1999/xlink" x="0px" y="0px"
	 viewBox="0 0 512 512" style="enable-background:new 0 0 512 512;" xml:space="preserve">
<style type="text/css">
	.st0{fill:#0089E0;}
	.st1{fill:#FFFFFF;}
	.st2{font-family:'WorkSans-Regular';}
	.st3{font-size:90.75px;}
</style>
<path d="M464,128h-80V80c0-26.5-21.5-48-48-48H176c-26.5,0-48,21.5-48,48v48H48c-26.5,0-48,21.5-48,48v256c0,26.5,21.5,48,48,48h416
	c26.5,0,48-21.5,48-48V176C512,149.5,490.5,128,464,128z M176,80h160v48H176V80z M48,432V176h80v256H48z M176,432V176h160v256H176z
	 M464,432h-80V176h80V432z"/>
<g>
	<path class="st0" d="M492.9,146.7H305.7c-10.6,0-19.1-8.6-19.1-19.1V52.1c0-10.6,8.6-19.1,19.1-19.1h187.2
		c10.6,0,19.1,8.6,19.1,19.1v75.4C512,138.1,503.4,146.7,492.9,146.7z"/>
	<text transform="matrix(1 0 0 1 307.7358 119.4169)" class="st1 st2 st3">PRO</text>
</g>
</svg>
