<?xml version="1.0" encoding="utf-8"?>
<!-- Generator: Adobe Illustrator 19.2.1, SVG Export Plug-In . SVG Version: 6.00 Build 0)  -->
<svg version="1.1" id="Lag_1" xmlns="http://www.w3.org/2000/svg" xmlns:xlink="http://www.w3.org/1999/xlink" x="0px" y="0px"
	 viewBox="0 0 640 512" style="enable-background:new 0 0 640 512;" xml:space="preserve">
<style type="text/css">
	.st0{fill:#0089E0;}
	.st1{fill:#FFFFFF;}
	.st2{font-family:'WorkSans-Regular';}
	.st3{font-size:90.75px;}
</style>
<path d="M624,368h-16V251.9c0-19-7.7-37.5-21.1-50.9L503,117.1C489.6,103.7,471,96,452.1,96H416V56c0-30.9-25.1-56-56-56H56
	C25.1,0,0,25.1,0,56v304c0,30.9,25.1,56,56,56h8c0,53,43,96,96,96s96-43,96-96h128c0,53,43,96,96,96s96-43,96-96h48
	c8.8,0,16-7.2,16-16v-16C640,375.2,632.8,368,624,368z M160,464c-26.5,0-48-21.5-48-48s21.5-48,48-48s48,21.5,48,48
	S186.5,464,160,464z M368,368H242.7c-16.6-28.6-47.2-48-82.7-48s-66.1,19.4-82.7,48H56c-4.4,0-8-3.6-8-8V56c0-4.4,3.6-8,8-8h304
	c4.4,0,8,3.6,8,8V368z M416,144h36.1c6.3,0,12.5,2.6,17,7l73,73H416V144z M480,464c-26.5,0-48-21.5-48-48s21.5-48,48-48
	s48,21.5,48,48S506.5,464,480,464z M560,363.1c-17.2-25.9-46.6-43.1-80-43.1c-24.7,0-47,9.6-64,24.9V272h144V363.1z"/>
<g>
	<path class="st0" d="M619.9,146.7H432.7c-10.6,0-19.1-8.6-19.1-19.1V52.1c0-10.6,8.6-19.1,19.1-19.1h187.2
		c10.6,0,19.1,8.6,19.1,19.1v75.4C639,138.1,630.4,146.7,619.9,146.7z"/>
	<text transform="matrix(1 0 0 1 434.7358 119.4169)" class="st1 st2 st3">PRO</text>
</g>
</svg>
