<?xml version="1.0" encoding="utf-8"?>
<!-- Generator: Adobe Illustrator 23.1.0, SVG Export Plug-In . SVG Version: 6.00 Build 0)  -->
<svg version="1.1" id="Layer_1" xmlns="http://www.w3.org/2000/svg" xmlns:xlink="http://www.w3.org/1999/xlink" x="0px" y="0px"
	 viewBox="0 0 448 512" style="enable-background:new 0 0 448 512;" xml:space="preserve">
<style type="text/css">
	.st0{fill:#0089E0;}
	.st1{fill:#FFFFFF;}
	.st2{font-family:'ArialMT';}
	.st3{font-size:90.75px;}
</style>
<path d="M313.6,304c-28.7,0-42.5,16-89.6,16s-60.8-16-89.6-16C60.2,304,0,364.2,0,438.4V464c0,26.5,21.5,48,48,48h352
	c26.5,0,48-21.5,48-48v-25.6C448,364.2,387.8,304,313.6,304z M400,464H48v-25.6c0-47.6,38.8-86.4,86.4-86.4c14.6,0,38.3,16,89.6,16
	c51.7,0,74.9-16,89.6-16c47.6,0,86.4,38.8,86.4,86.4V464z M224,288c79.5,0,144-64.5,144-144S303.5,0,224,0S80,64.5,80,144
	S144.5,288,224,288z M224,48c52.9,0,96,43.1,96,96s-43.1,96-96,96s-96-43.1-96-96S171.1,48,224,48z"/>
<g>
	<path class="st0" d="M430.3,146.7H243.1c-10.6,0-19.1-8.6-19.1-19.1V52.1c0-10.6,8.6-19.1,19.1-19.1h187.2
		c10.6,0,19.1,8.6,19.1,19.1v75.4C449.4,138.1,440.8,146.7,430.3,146.7z"/>
	<text transform="matrix(1 0 0 1 245.1359 119.4169)" class="st1 st2 st3">PRO</text>
</g>
</svg>
