<?xml version="1.0" encoding="utf-8"?>
<!-- Generator: Adobe Illustrator 23.1.0, SVG Export Plug-In . SVG Version: 6.00 Build 0)  -->
<svg version="1.1" id="Layer_1" xmlns="http://www.w3.org/2000/svg" xmlns:xlink="http://www.w3.org/1999/xlink" x="0px" y="0px"
	 viewBox="0 0 496 512" style="enable-background:new 0 0 496 512;" xml:space="preserve">
<style type="text/css">
	.st0{fill:#0089E0;}
	.st1{fill:#FFFFFF;}
	.st2{font-family:'ArialMT';}
	.st3{font-size:90.75px;}
</style>
<path d="M248,8C111,8,0,119,0,256s111,248,248,248s248-111,248-248S385,8,248,8z M376,429.6c-35.9,26.5-80.1,42.4-128,42.4
	s-92.1-15.9-128-42.4V416c0-35.3,28.7-64,64-64c11.1,0,27.5,11.4,64,11.4c36.6,0,52.8-11.4,64-11.4c35.3,0,64,28.7,64,64V429.6z
	 M406.6,402.1c-6.8-46.4-46.3-82.1-94.6-82.1c-20.5,0-30.4,11.4-64,11.4S204.6,320,184,320c-48.3,0-87.8,35.7-94.6,82.1
	C53.9,363.6,32,312.4,32,256c0-119.1,96.9-216,216-216s216,96.9,216,216C464,312.4,442.1,363.6,406.6,402.1z M248,120
	c-48.6,0-88,39.4-88,88s39.4,88,88,88s88-39.4,88-88S296.6,120,248,120z M248,264c-30.9,0-56-25.1-56-56s25.1-56,56-56
	s56,25.1,56,56S278.9,264,248,264z"/>
<g>
	<path class="st0" d="M476.9,146.7H289.7c-10.6,0-19.1-8.6-19.1-19.1V52.1c0-10.6,8.6-19.1,19.1-19.1h187.2
		c10.6,0,19.1,8.6,19.1,19.1v75.4C496,138.1,487.4,146.7,476.9,146.7z"/>
	<text transform="matrix(1 0 0 1 291.7358 119.4169)" class="st1 st2 st3">PRO</text>
</g>
</svg>
