<?xml version="1.0" encoding="utf-8"?>
<!-- Generator: Adobe Illustrator 23.1.0, SVG Export Plug-In . SVG Version: 6.00 Build 0)  -->
<svg version="1.1" id="Layer_1" xmlns="http://www.w3.org/2000/svg" xmlns:xlink="http://www.w3.org/1999/xlink" x="0px" y="0px"
	 viewBox="0 0 448 512" style="enable-background:new 0 0 448 512;" xml:space="preserve">
<style type="text/css">
	.st0{fill:#0089E0;}
	.st1{fill:#FFFFFF;}
	.st2{font-family:'ArialMT';}
	.st3{font-size:90.75px;}
</style>
<path d="M313.6,288c-28.7,0-42.5,16-89.6,16s-60.8-16-89.6-16C60.2,288,0,348.2,0,422.4V464c0,26.5,21.5,48,48,48h352
	c26.5,0,48-21.5,48-48v-41.6C448,348.2,387.8,288,313.6,288z M416,464c0,8.8-7.2,16-16,16H48c-8.8,0-16-7.2-16-16v-41.6
	C32,365.9,77.9,320,134.4,320c19.6,0,39.1,16,89.6,16c50.4,0,70-16,89.6-16c56.5,0,102.4,45.9,102.4,102.4V464z M224,256
	c70.7,0,128-57.3,128-128S294.7,0,224,0S96,57.3,96,128S153.3,256,224,256z M224,32c52.9,0,96,43.1,96,96s-43.1,96-96,96
	s-96-43.1-96-96S171.1,32,224,32z"/>
<g>
	<path class="st0" d="M428.9,146.7H241.7c-10.6,0-19.1-8.6-19.1-19.1V52.1c0-10.6,8.6-19.1,19.1-19.1h187.2
		c10.6,0,19.1,8.6,19.1,19.1v75.4C448,138.1,439.4,146.7,428.9,146.7z"/>
	<text transform="matrix(1 0 0 1 243.7358 119.4169)" class="st1 st2 st3">PRO</text>
</g>
</svg>
