<svg id="Lag_1" data-name="Lag 1" xmlns="http://www.w3.org/2000/svg" viewBox="0 0 185 115"><defs><style>.cls-1{fill:#f6f6f6;}.cls-2{fill:#b9b9b8;}.cls-3{fill:#fff;}.cls-4{fill:#d5d3d2;}.cls-5{fill:#0089e0;}</style></defs><title>DW</title><rect class="cls-1" x="1.17" y="1.16" width="185" height="115"/><path class="cls-2" d="M28.83,11.47H156.17a5,5,0,0,1,5,5V89.52a2.71,2.71,0,0,1-2.71,2.71H26.57a2.71,2.71,0,0,1-2.71-2.71V16.44A5,5,0,0,1,28.83,11.47Z"/><rect class="cls-2" x="9.33" y="93.84" width="166.34" height="9.69" rx="1.44" ry="1.44"/><rect class="cls-3" x="28.71" y="19.55" width="127.58" height="67.83"/><circle class="cls-1" cx="92.5" cy="15.51" r="2.42"/><path class="cls-4" d="M72.31,93.84h40.37a0,0,0,0,1,0,0v1.23a2,2,0,0,1-2,2H74.31a2,2,0,0,1-2-2V93.84A0,0,0,0,1,72.31,93.84Z"/><rect class="cls-5" x="28.71" y="19.55" width="127.58" height="25.69"/><rect class="cls-4" x="55.43" y="69.76" width="74" height="17.62"/><rect class="cls-3" x="34.97" y="28.44" width="46.85" height="5.19"/><rect class="cls-3" x="34.97" y="35.71" width="36.26" height="2.15"/><rect class="cls-3" x="34.97" y="38.61" width="25.99" height="2.15"/><rect class="cls-4" x="55.08" y="48.6" width="67.87" height="1.46"/><rect class="cls-4" x="55.08" y="51.85" width="48.38" height="1.46"/><rect class="cls-4" x="55.08" y="55.11" width="58.78" height="1.46"/><rect class="cls-4" x="55.08" y="58.36" width="62.32" height="1.46"/><rect class="cls-4" x="55.08" y="61.61" width="27.76" height="1.46"/><rect class="cls-4" x="55.08" y="65.09" width="45.33" height="1.46"/><rect class="cls-3" x="34.97" y="22.34" width="16.6" height="2.92"/></svg>