<svg id="Lag_1" data-name="Lag 1" xmlns="http://www.w3.org/2000/svg" viewBox="0 0 115 74"><defs><style>.cls-1{fill:#f6f6f6;}.cls-2{fill:#b9b9b8;}.cls-3,.cls-8{fill:#fff;}.cls-4{fill:#d5d3d2;}.cls-5{fill:#0089e0;}.cls-6{fill:#00c1f9;}.cls-7{fill:#433f3d;}.cls-8{font-size:16px;font-family:Arial;}</style></defs><title>DW</title><path class="cls-1" d="M0,0V74H115V0H0ZM113,32v0Z"/><path class="cls-2" d="M20,10H95a5,5,0,0,1,5,5V57.29A2.71,2.71,0,0,1,97.29,60H17.71A2.71,2.71,0,0,1,15,57.29V15A5,5,0,0,1,20,10Z"/><rect class="cls-2" x="6" y="61" width="103" height="6" rx="1.44" ry="1.44"/><rect class="cls-3" x="18" y="15" width="79" height="42"/><circle class="cls-1" cx="57.5" cy="12.5" r="1.5"/><path class="cls-4" d="M45,61H70a0,0,0,0,1,0,0v0a2,2,0,0,1-2,2H47a2,2,0,0,1-2-2v0a0,0,0,0,1,0,0Z"/><rect class="cls-5" x="27" y="32" width="39.9" height="21" rx="2.34" ry="2.34"/><rect class="cls-4" x="69" y="32" width="19" height="10" rx="2.34" ry="2.34"/><rect class="cls-4" x="27" y="17" width="61" height="13" rx="2.41" ry="2.41"/><rect class="cls-6" x="27" y="55" width="16" height="1"/><rect class="cls-4" x="69" y="44" width="16" height="1"/><rect class="cls-4" x="69" y="46" width="13" height="1"/><rect class="cls-4" x="69" y="48" width="14" height="1"/><rect class="cls-4" x="69" y="50" width="9" height="1"/><rect class="cls-7" y="3" width="42.11" height="17.45"/><text class="cls-8" transform="translate(7.77 17.55)">auto</text><polygon class="cls-3" points="70.2 45.88 76.38 42.5 70.2 39.13 70.2 41.09 61 41.09 61 43.91 70.2 43.91 70.2 45.88"/><path class="cls-5" d="M69.7,46.72V44.41H60.5V40.59H69.7V38.28l7.72,4.22ZM61.5,43.41H70.7V45l4.64-2.53L70.7,40v1.63H61.5v1.81Z"/><path class="cls-3" d="M59.6,41.09v-2L53.42,42.5l6.18,3.38v-2h8V41.09h-8Z"/><path class="cls-5" d="M59.1,43.41V45L54.46,42.5,59.1,40v1.63h8.52v-1H60.1V38.28L52.38,42.5l7.72,4.22V44.41h7.52v-1H59.1Z"/></svg>