<svg id="Layer_1" data-name="Layer 1" xmlns="http://www.w3.org/2000/svg" viewBox="0 0 100 72"><defs><style>.cls-1{fill:#f6f6f6;}.cls-2{fill:#e6e6e6;}.cls-3{fill:#fff;}.cls-4{fill:#0089e0;}.cls-5{fill:#f2f2f2;}</style></defs><title>DW_</title><rect class="cls-1" x="-0.06" y="0.01" width="100.13" height="71.98"/><polygon class="cls-2" points="28.61 68.93 73.61 68.93 73.61 17.18 73.61 15.7 63.19 5.29 28.61 5.29 28.61 68.93"/><polygon class="cls-3" points="27.5 67.82 72.5 67.82 72.5 16.07 72.5 14.59 62.09 4.18 27.5 4.18 27.5 67.82"/><polygon class="cls-4" points="66.64 10.23 51.36 10.23 51.36 7.23 65.14 7.23 66.64 10.23"/><rect class="cls-4" x="53.36" y="18.65" width="16" height="2"/><rect class="cls-4" x="43.36" y="11.69" width="26" height="5"/><path class="cls-5" d="M72.5,14.59A38.47,38.47,0,0,0,62.09,4.18h0l2.19,5.21Z"/></svg>