<svg id="Layer_1" data-name="Layer 1" xmlns="http://www.w3.org/2000/svg" viewBox="0 0 100 72"><defs><style>.cls-1{fill:#f6f6f6;}.cls-2{fill:#e6e6e6;}.cls-3{fill:#fff;}.cls-4{fill:#e4e3e2;}.cls-5{fill:#f2f2f2;}.cls-6{fill:#0089e0;}.cls-7{fill:#d4d3d2;}.cls-8{fill:#f7f7f7;}</style></defs><title>DW</title><rect class="cls-1" x="-0.06" y="0.01" width="100.13" height="71.98"/><polygon class="cls-2" points="28.61 68.93 73.61 68.93 73.61 17.18 73.61 15.7 63.19 5.29 28.61 5.29 28.61 68.93"/><polygon class="cls-3" points="27.5 67.82 72.5 67.82 72.5 16.07 72.5 14.59 62.09 4.18 27.5 4.18 27.5 67.82"/><polygon class="cls-4" points="67.94 9.18 27.5 9.18 27.5 4.18 62.09 4.18 67.94 9.18"/><path class="cls-5" d="M72.5,14.59A38.47,38.47,0,0,0,62.09,4.18h0l2.19,5.21Z"/><rect class="cls-4" x="27.5" y="62.78" width="45" height="5"/><rect class="cls-6" x="30.86" y="21.52" width="38.01" height="21.6"/><rect class="cls-7" x="30.86" y="13.09" width="22.44" height="3"/><rect class="cls-7" x="30.86" y="17.15" width="10.48" height="2"/><rect class="cls-7" x="30.86" y="45.65" width="17.37" height="1"/><rect class="cls-7" x="30.86" y="47.35" width="17.37" height="1"/><rect class="cls-7" x="30.86" y="49.04" width="17.37" height="1"/><rect class="cls-7" x="30.86" y="50.73" width="17.37" height="1"/><rect class="cls-7" x="30.86" y="52.48" width="17.37" height="1"/><rect class="cls-7" x="30.86" y="54.18" width="17.37" height="1"/><rect class="cls-7" x="30.86" y="55.87" width="17.37" height="1"/><rect class="cls-7" x="30.86" y="57.56" width="12.36" height="1"/><rect class="cls-7" x="52.21" y="45.48" width="16.66" height="3"/><rect class="cls-8" x="52.21" y="50.48" width="16.66" height="2"/><rect class="cls-8" x="52.21" y="54.48" width="16.66" height="2"/><rect class="cls-8" x="52.21" y="58.48" width="16.66" height="2"/></svg>