<svg id="Lag_1" data-name="Lag 1" xmlns="http://www.w3.org/2000/svg" viewBox="0 0 185 115"><defs><style>.cls-1{fill:#f6f6f6;}.cls-2{fill:#0089e0;}.cls-3{fill:#fff;}.cls-4{fill:#d5d3d2;}</style></defs><title>DW</title><rect class="cls-1" x="0.17" y="0.16" width="185" height="115"/><rect class="cls-2" x="27.92" y="27.19" width="130.6" height="60.63" rx="2.34" ry="2.34"/><rect class="cls-1" x="52.96" y="42.3" width="84.05" height="6.06"/><rect class="cls-1" x="52.96" y="52.5" width="66.69" height="6.06"/><circle class="cls-3" cx="150.12" cy="57.5" r="4.28"/><rect class="cls-4" x="149.53" y="54.35" width="2.07" height="4.32" transform="translate(4.14 123.02) rotate(-45)"/><rect class="cls-4" x="148.4" y="57.07" width="4.32" height="2.07" transform="translate(3.01 123.48) rotate(-45)"/><circle class="cls-3" cx="35.69" cy="57.5" r="4.28"/><rect class="cls-4" x="33.08" y="55.47" width="4.32" height="2.07" transform="translate(-29.63 41.47) rotate(-45)"/><rect class="cls-4" x="34.21" y="55.94" width="2.07" height="4.32" transform="translate(-30.76 41.94) rotate(-45)"/><circle class="cls-3" cx="87.94" cy="83.5" r="1.38"/><circle class="cls-3" cx="92.5" cy="83.5" r="1.38"/><circle class="cls-3" cx="97.06" cy="83.5" r="1.38"/></svg>