<svg id="Lag_1" data-name="Lag 1" xmlns="http://www.w3.org/2000/svg" viewBox="0 0 185 115"><defs><style>.cls-1{fill:#f6f6f6;}.cls-2{fill:#0089e0;}.cls-3{fill:#d5d3d2;}</style></defs><title>DW</title><rect class="cls-1" x="0.67" y="0.66" width="185" height="115"/><rect class="cls-2" x="29.16" y="10.6" width="29.02" height="16.75" rx="2.34" ry="2.34"/><rect class="cls-3" x="62.93" y="10.6" width="29.02" height="16.75" rx="2.34" ry="2.34"/><rect class="cls-3" x="96.43" y="10.6" width="29.02" height="16.75" rx="2.34" ry="2.34"/><rect class="cls-3" x="129.92" y="10.6" width="26.93" height="16.75" rx="2.34" ry="2.34"/><rect class="cls-2" x="29.16" y="31.53" width="29.31" height="2.09"/><rect class="cls-2" x="29.16" y="35.72" width="23.03" height="2.09"/><rect class="cls-2" x="29.16" y="39.91" width="25.12" height="2.09"/><rect class="cls-2" x="29.16" y="44.09" width="16.48" height="2.09"/><rect class="cls-3" x="62.65" y="31.53" width="29.31" height="2.09"/><rect class="cls-3" x="62.65" y="35.72" width="23.03" height="2.09"/><rect class="cls-3" x="62.65" y="39.91" width="25.12" height="2.09"/><rect class="cls-3" x="62.65" y="44.09" width="16.48" height="2.09"/><rect class="cls-3" x="96.14" y="31.53" width="29.31" height="2.09"/><rect class="cls-3" x="96.14" y="35.72" width="23.03" height="2.09"/><rect class="cls-3" x="96.14" y="39.91" width="25.12" height="2.09"/><rect class="cls-3" x="96.14" y="44.09" width="16.48" height="2.09"/><rect class="cls-3" x="129.63" y="31.53" width="27.21" height="2.09"/><rect class="cls-3" x="129.63" y="35.72" width="23.03" height="2.09"/><rect class="cls-3" x="129.63" y="39.91" width="25.12" height="2.09"/><rect class="cls-3" x="129.63" y="44.09" width="16.48" height="2.09"/><rect class="cls-3" x="29.16" y="54.48" width="29.02" height="16.75" rx="2.34" ry="2.34"/><rect class="cls-3" x="62.93" y="54.48" width="29.02" height="16.75" rx="2.34" ry="2.34"/><rect class="cls-3" x="96.43" y="54.48" width="29.02" height="16.75" rx="2.34" ry="2.34"/><rect class="cls-3" x="129.92" y="54.48" width="26.93" height="16.75" rx="2.34" ry="2.34"/><rect class="cls-3" x="29.16" y="75.41" width="29.31" height="2.09"/><rect class="cls-3" x="29.16" y="79.6" width="23.03" height="2.09"/><rect class="cls-3" x="29.16" y="83.79" width="25.12" height="2.09"/><rect class="cls-3" x="29.16" y="87.97" width="16.48" height="2.09"/><rect class="cls-3" x="62.65" y="75.41" width="29.31" height="2.09"/><rect class="cls-3" x="62.65" y="79.6" width="23.03" height="2.09"/><rect class="cls-3" x="62.65" y="83.79" width="25.12" height="2.09"/><rect class="cls-3" x="62.65" y="87.97" width="16.48" height="2.09"/><rect class="cls-3" x="96.14" y="75.41" width="29.31" height="2.09"/><rect class="cls-3" x="96.14" y="79.6" width="23.03" height="2.09"/><rect class="cls-3" x="96.14" y="83.79" width="25.12" height="2.09"/><rect class="cls-3" x="96.14" y="87.97" width="16.48" height="2.09"/><rect class="cls-3" x="129.63" y="75.41" width="27.21" height="2.09"/><rect class="cls-3" x="129.63" y="79.6" width="23.03" height="2.09"/><rect class="cls-3" x="129.63" y="83.79" width="25.12" height="2.09"/><rect class="cls-3" x="129.63" y="87.97" width="16.48" height="2.09"/></svg>