<svg id="Lag_1" data-name="Lag 1" xmlns="http://www.w3.org/2000/svg" viewBox="0 0 185 115"><defs><style>.cls-1{fill:#f6f6f6;}.cls-2{fill:#0089e0;}.cls-3{fill:#d5d3d2;}</style></defs><title>DW</title><rect class="cls-1" x="0.17" y="0.16" width="185" height="115"/><rect class="cls-2" x="27.92" y="10.1" width="38.93" height="22.46" rx="2.34" ry="2.34"/><rect class="cls-3" x="73.23" y="10.1" width="38.93" height="22.46" rx="2.34" ry="2.34"/><rect class="cls-3" x="118.16" y="10.1" width="38.93" height="22.46" rx="2.34" ry="2.34"/><rect class="cls-2" x="27.92" y="38.18" width="39.31" height="2.81"/><rect class="cls-2" x="27.92" y="43.8" width="30.89" height="2.81"/><rect class="cls-2" x="27.92" y="49.41" width="33.7" height="2.81"/><rect class="cls-3" x="72.84" y="38.18" width="39.31" height="2.81"/><rect class="cls-3" x="72.84" y="43.8" width="30.89" height="2.81"/><rect class="cls-3" x="72.84" y="49.41" width="33.7" height="2.81"/><rect class="cls-3" x="117.77" y="38.18" width="39.31" height="2.81"/><rect class="cls-3" x="117.77" y="43.8" width="30.89" height="2.81"/><rect class="cls-3" x="117.77" y="49.41" width="33.7" height="2.81"/><rect class="cls-3" x="27.92" y="62.26" width="38.93" height="22.46" rx="2.34" ry="2.34"/><rect class="cls-3" x="73.23" y="62.26" width="38.93" height="22.46" rx="2.34" ry="2.34"/><rect class="cls-3" x="118.16" y="62.26" width="38.93" height="22.46" rx="2.34" ry="2.34"/><rect class="cls-3" x="27.92" y="90.34" width="39.31" height="2.81"/><rect class="cls-3" x="27.92" y="95.95" width="30.89" height="2.81"/><rect class="cls-3" x="27.92" y="101.57" width="33.7" height="2.81"/><rect class="cls-3" x="72.84" y="90.34" width="39.31" height="2.81"/><rect class="cls-3" x="72.84" y="95.95" width="30.89" height="2.81"/><rect class="cls-3" x="72.84" y="101.57" width="33.7" height="2.81"/><rect class="cls-3" x="117.77" y="90.34" width="39.31" height="2.81"/><rect class="cls-3" x="117.77" y="95.95" width="30.89" height="2.81"/><rect class="cls-3" x="117.77" y="101.57" width="33.7" height="2.81"/></svg>