<svg id="Lag_1" data-name="Lag 1" xmlns="http://www.w3.org/2000/svg" viewBox="0 0 185 115"><defs><style>.cls-1{fill:#d5d3d2;}.cls-2{fill:#b9b9b8;}.cls-3{fill:#fff;}</style></defs><title>DW</title><rect class="cls-1" x="-5.81" y="-3.37" width="197.96" height="123.05"/><path class="cls-2" d="M95.41-5.06C79.25,6.35,72.72,22.32,72.76,42.31l20.76,2L61,85.91,29.25,48.37V43.28H48.38c1.35-25.62,14.13-41,36.85-48.35H95.41Z"/><path class="cls-2" d="M123.48,28.85l32.27,42.21-19.89,2.09C132.37,99.2,119.92,117,90.63,120.06c17.78-22.34,20.1-28,19.34-47l-19.7-2.35Z"/><path class="cls-3" d="M39.54,46.51q2.75,2.85,2.75,8.14T39.54,62.8q-2.75,2.85-7.91,2.85H22.3v-22h9.33Q36.79,43.66,39.54,46.51ZM35.13,59.65a8,8,0,0,0,1.3-5,8,8,0,0,0-1.3-5A4.83,4.83,0,0,0,31.06,48H28V61.31h3A4.83,4.83,0,0,0,35.13,59.65Z"/><path class="cls-3" d="M63.77,61.21v4.43H46.22v-22H63.34v4.43H51.95v4.46H61v4.16H51.95v4.5H63.77Z"/><path class="cls-3" d="M73,48.09v4.66H82v4.43H73v8.46H67.24v-22H84.32v4.43H73Z"/><path class="cls-3" d="M98.08,60.68H90.49l-1.53,5H83.19l7.73-22h6.86l7.69,22h-5.9Zm-1.2-3.9-1.6-5.26-1-3.46H94.25l-0.9,3.43-1.67,5.3h5.2Z"/><path class="cls-3" d="M126.39,56.68q0,4.63-2.46,7T116.56,66q-4.86,0-7.34-2.33t-2.48-7v-13h5.76V56.79a5.32,5.32,0,0,0,1,3.53,3.82,3.82,0,0,0,3.06,1.17q4.13,0,4.13-4.7V43.66h5.7v13Z"/><path class="cls-3" d="M147.64,61.21v4.43H130.89v-22h5.73V61.21h11Z"/><path class="cls-3" d="M164.86,48.09H157.7V65.64H152V48.09h-7.19V43.66h20.08v4.43Z"/></svg>