<svg id="Lag_1" data-name="Lag 1" xmlns="http://www.w3.org/2000/svg" viewBox="0 0 185 115"><defs><style>.cls-1{fill:#f6f6f6;}.cls-2{fill:#0089e0;}.cls-3{fill:#d5d3d2;}</style></defs><title>DW</title><rect class="cls-1" x="0.17" y="0.16" width="185" height="115"/><rect class="cls-2" x="28.66" y="10.1" width="29.02" height="16.75" rx="2.34" ry="2.34"/><rect class="cls-3" x="62.15" y="10.1" width="81.97" height="2.39"/><rect class="cls-3" x="62.15" y="14.88" width="64.4" height="2.39"/><rect class="cls-3" x="62.15" y="19.67" width="70.26" height="2.39"/><rect class="cls-3" x="62.15" y="24.45" width="46.11" height="2.39"/><rect class="cls-3" x="28.66" y="32.04" width="29.02" height="16.75" rx="2.34" ry="2.34"/><rect class="cls-3" x="62.15" y="32.04" width="81.97" height="2.39"/><rect class="cls-3" x="62.15" y="36.82" width="64.4" height="2.39"/><rect class="cls-3" x="62.15" y="41.61" width="70.26" height="2.39"/><rect class="cls-3" x="62.15" y="46.39" width="46.11" height="2.39"/><rect class="cls-3" x="28.66" y="53.98" width="29.02" height="16.75" rx="2.34" ry="2.34"/><rect class="cls-3" x="62.15" y="53.98" width="81.97" height="2.39"/><rect class="cls-3" x="62.15" y="58.76" width="64.4" height="2.39"/><rect class="cls-3" x="62.15" y="63.55" width="70.26" height="2.39"/><rect class="cls-3" x="62.15" y="68.33" width="46.11" height="2.39"/><rect class="cls-3" x="28.66" y="76.64" width="29.02" height="16.75" rx="2.34" ry="2.34"/><rect class="cls-3" x="62.15" y="76.64" width="81.97" height="2.39"/><rect class="cls-3" x="62.15" y="81.43" width="64.4" height="2.39"/><rect class="cls-3" x="62.15" y="86.21" width="70.26" height="2.39"/><rect class="cls-3" x="62.15" y="90.99" width="46.11" height="2.39"/></svg>